<svg id="Layer_1" data-name="Layer 1" xmlns="http://www.w3.org/2000/svg" viewBox="0 0 1152 288"><defs><style>.cls-1{fill:none;stroke:#221e1f;stroke-miterlimit:10;stroke-width:2px;}</style></defs><title>Artboard 1</title><g id="_グループ_" data-name="&lt;グループ&gt;"><g id="_グループ_2" data-name="&lt;グループ&gt;"><polygon id="_パス_" data-name="&lt;パス&gt;" class="cls-1" points="177.99 144 144 55 233 0 288 144 177.99 144"/><polygon id="_パス_2" data-name="&lt;パス&gt;" class="cls-1" points="110.01 144 144 55 55 0 0 144 110.01 144"/><polygon id="_パス_3" data-name="&lt;パス&gt;" class="cls-1" points="177.99 144 144 233 233 288 288 144 177.99 144"/><polygon id="_パス_4" data-name="&lt;パス&gt;" class="cls-1" points="110.01 144 144 233 55 288 0 144 110.01 144"/><line id="_パス_5" data-name="&lt;パス&gt;" class="cls-1" x1="55" x2="233"/><line id="_パス_6" data-name="&lt;パス&gt;" class="cls-1" x1="55" y1="288" x2="233" y2="288"/></g><g id="_グループ_3" data-name="&lt;グループ&gt;"><polygon id="_パス_7" data-name="&lt;パス&gt;" class="cls-1" points="465.99 144 432 55 521 0 576 144 465.99 144"/><polygon id="_パス_8" data-name="&lt;パス&gt;" class="cls-1" points="398.01 144 432 55 343 0 288 144 398.01 144"/><polygon id="_パス_9" data-name="&lt;パス&gt;" class="cls-1" points="465.99 144 432 233 521 288 576 144 465.99 144"/><polygon id="_パス_10" data-name="&lt;パス&gt;" class="cls-1" points="398.01 144 432 233 343 288 288 144 398.01 144"/><line id="_パス_11" data-name="&lt;パス&gt;" class="cls-1" x1="343" x2="521"/><line id="_パス_12" data-name="&lt;パス&gt;" class="cls-1" x1="343" y1="288" x2="521" y2="288"/></g><g id="_グループ_4" data-name="&lt;グループ&gt;"><line id="_パス_13" data-name="&lt;パス&gt;" class="cls-1" x1="55" y1="288" x2="233" y2="288"/></g><g id="_グループ_5" data-name="&lt;グループ&gt;"><line id="_パス_14" data-name="&lt;パス&gt;" class="cls-1" x1="343" y1="288" x2="521" y2="288"/></g><g id="_グループ_6" data-name="&lt;グループ&gt;"><polygon id="_パス_15" data-name="&lt;パス&gt;" class="cls-1" points="753.99 144 720 55 809 0 864 144 753.99 144"/><polygon id="_パス_16" data-name="&lt;パス&gt;" class="cls-1" points="686.01 144 720 55 631 0 576 144 686.01 144"/><polygon id="_パス_17" data-name="&lt;パス&gt;" class="cls-1" points="753.99 144 720 233 809 288 864 144 753.99 144"/><polygon id="_パス_18" data-name="&lt;パス&gt;" class="cls-1" points="686.01 144 720 233 631 288 576 144 686.01 144"/><line id="_パス_19" data-name="&lt;パス&gt;" class="cls-1" x1="631" x2="809"/><line id="_パス_20" data-name="&lt;パス&gt;" class="cls-1" x1="631" y1="288" x2="809" y2="288"/></g><g id="_グループ_7" data-name="&lt;グループ&gt;"><line id="_パス_21" data-name="&lt;パス&gt;" class="cls-1" x1="631" y1="288" x2="809" y2="288"/></g></g><polygon id="_パス_22" data-name="&lt;パス&gt;" class="cls-1" points="1041.99 144 1008 55 1097 0 1152 144 1041.99 144"/><polyline id="_パス_23" data-name="&lt;パス&gt;" class="cls-1" points="864 144 974.01 144 1008 55 919 0 864 144"/><polygon id="_パス_24" data-name="&lt;パス&gt;" class="cls-1" points="1041.99 144 1008 233 1097 288 1152 144 1041.99 144"/><polyline id="_パス_25" data-name="&lt;パス&gt;" class="cls-1" points="864 144 974.01 144 1008 233 919 288 864 144"/><line id="_パス_26" data-name="&lt;パス&gt;" class="cls-1" x1="919" x2="1097"/><line id="_パス_27" data-name="&lt;パス&gt;" class="cls-1" x1="919" y1="288" x2="1097" y2="288"/><line id="_パス_28" data-name="&lt;パス&gt;" class="cls-1" x1="919" y1="288" x2="1097" y2="288"/></svg>